# xmcd
#
# Track frame offsets:
#	150
#	15044
#	31276
#	45927
#	59155
#	78305
#	94867
#	110638
#	126173
#	140576
#	157586
#	168473
#	185621
#
# Disc length: 2591 seconds
#
# Revision: 0
# Processed by: cddbd v1.5.2PL0 Copyright (c) Steve Scherf et al.
# Submitted via: SynApp - FreeCDDB Version: 2.4
#
DISCID=9f0a1d0d
DTITLE=Big Bill Morganfield - Blues In The Blood
DYEAR=2003
DGENRE=Blues
TTITLE0=Boogie Child
TTITLE1=Evil
TTITLE2=Hoochie Coochie Girl
TTITLE3=Left Alone
TTITLE4=Trapped
TTITLE5=Whiskey
TTITLE6=Feel Like Dyin'
TTITLE7=Love You Right
TTITLE8=Anything Just For You
TTITLE9=Strong Love
TTITLE10=Time To Go
TTITLE11=Why Don't You Live
TTITLE12=So God Can Use You
EXTD=
EXTT0=
EXTT1=
EXTT2=
EXTT3=
EXTT4=
EXTT5=
EXTT6=
EXTT7=
EXTT8=
EXTT9=
EXTT10=
EXTT11=
EXTT12=
PLAYORDER=
